<svg width="141" height="139" viewBox="0 0 141 139" fill="none" xmlns="http://www.w3.org/2000/svg">
<path d="M0.500007 72C-1 27 38 0.5 68.5 0.5C100.5 0.5 138.5 25 140 69C140 119 95.5 136.5 95.5 136.5C95.5 136.5 90.5 139 88 136.5C85.5 134 88 121.5 87.5 110.5C86.5 105 83 102 83 102C83 102 110 102 114 76.5C116.5 54.5 107 48.5 107 48.5C107 48.5 108.872 45.5 108.686 39C108.5 32.5 107 30 107 30C107 30 104 29 96.5 31.5C90.5 33.5 87.5 37 87.5 37C87.5 37 80.5 34.5 70 34.5C59.5 34.5 51.5 37 51.5 37C51.5 37 48.5 34 43.5 31.5C38.5 29 33.5 29.5 33.5 29.5C33.5 29.5 31 32.5 31 39C31 45.5 33.5 48.5 33.5 48.5C33.5 48.5 24 54.5 25.5 72C26 99.5 57.5 102 57.5 102C57.5 102 55.5 103.75 54 106C52.5 109 53 112 53 112C53 112 45 114 39.5 112C34 110 32.75 103.5 27.5 100C24.5 98 19.75 97.5 19 99C18 101 24 102.5 26.5 107C29 111.5 29 114.5 34.5 119C40 123.5 53 121 53 121V133C53 136 51 138.875 47.5 137.5C33.5 132 4.00001 118.5 0.500007 72Z" fill="black" stroke="black" stroke-width="0.5"/>
</svg>
