<svg width="152" height="152" viewBox="0 0 152 152" fill="none" xmlns="http://www.w3.org/2000/svg">
<path d="M1 12C1 5.92487 5.92487 1 12 1H140C146.075 1 151 5.92487 151 12V140C151 146.075 146.075 151 140 151H12C5.92487 151 1 146.075 1 140V12Z" fill="#0274B3"/>
<path d="M48 34.5C48 41.9558 41.9558 48 34.5 48C27.0442 48 21 41.9558 21 34.5C21 27.0442 27.0442 21 34.5 21C41.9558 21 48 27.0442 48 34.5Z" fill="white"/>
<path d="M23 57H46V129H23V57Z" fill="white"/>
<path d="M59.5 128.5V57.5H81V67C81 67 85.5 55.5 103 55.5C128.5 55.5 128.5 80.5 128.5 80.5V128.5H106V90.5C106 90.5 107 75.5 93.5 75.5C80 75.5 81 90.5 81 90.5V128.5H59.5Z" fill="white"/>
<path d="M1 12C1 5.92487 5.92487 1 12 1H140C146.075 1 151 5.92487 151 12V140C151 146.075 146.075 151 140 151H12C5.92487 151 1 146.075 1 140V12Z" stroke="white"/>
<path d="M48 34.5C48 41.9558 41.9558 48 34.5 48C27.0442 48 21 41.9558 21 34.5C21 27.0442 27.0442 21 34.5 21C41.9558 21 48 27.0442 48 34.5Z" stroke="white"/>
<path d="M23 57H46V129H23V57Z" stroke="white"/>
<path d="M59.5 128.5V57.5H81V67C81 67 85.5 55.5 103 55.5C128.5 55.5 128.5 80.5 128.5 80.5V128.5H106V90.5C106 90.5 107 75.5 93.5 75.5C80 75.5 81 90.5 81 90.5V128.5H59.5Z" stroke="white"/>
</svg>
