<svg width="142" height="109" viewBox="0 0 142 109" fill="none" xmlns="http://www.w3.org/2000/svg">
<path d="M1 13C1 6.37258 6.37258 1 13 1H129C135.627 1 141 6.37258 141 13V95C141 101.627 135.627 107 129 107H13C6.37258 107 1 101.627 1 95V13Z" fill="#F1F5F7"/>
<path d="M123.5 107L71 66L123.5 24.5V107Z" fill="#DCE6EA"/>
<path d="M18.5 25V107C1.50003 107 1.50003 97 1.50003 97V13C1.50003 -1.5 18.5 2.00001 18.5 2.00001L71 42.5L124 2.00001C124 2.00001 140.5 -0.5 140.5 13V97C140.5 97 140.5 107 124 107V23.5L71 65.5L18.5 25Z" fill="#F84437"/>
<path d="M1 13C1 6.37258 6.37258 1 13 1H129C135.627 1 141 6.37258 141 13V95C141 101.627 135.627 107 129 107H13C6.37258 107 1 101.627 1 95V13Z" stroke="#F84437"/>
<path d="M123.5 107L71 66L123.5 24.5V107Z" stroke="#F84437"/>
<path d="M18.5 25V107C1.50003 107 1.50003 97 1.50003 97V13C1.50003 -1.5 18.5 2.00001 18.5 2.00001L71 42.5L124 2.00001C124 2.00001 140.5 -0.5 140.5 13V97C140.5 97 140.5 107 124 107V23.5L71 65.5L18.5 25Z" stroke="#F84437"/>
</svg>
